<?xml version="1.0" encoding="UTF-8"?>
<svg id="Layer_2" xmlns="http://www.w3.org/2000/svg" viewBox="0 0 978.02 232.92">
  <defs>
    <style>
      .cls-1 {
        fill: #d2a37b;
      }

      .cls-2 {
        fill: #d2a27b;
      }
    </style>
  </defs>
  <g id="Layer_1-2" data-name="Layer_1">
    <g id="sp5kSH">
      <g>
        <path class="cls-1" d="M104.66,202.84c-19.56,0-39.11,0-58.67,0-13.24,0-24.57-4.74-33.71-14.26-7.17-7.46-11.22-16.45-12.05-26.86-.22-2.77-.22-5.53-.22-8.29C0,117.19,0,80.96,0,44.72c0-8.68,2.12-16.76,6.96-24.02C15.01,8.64,26.27,1.84,40.7.31c1.83-.19,3.64-.24,5.47-.24,39.17,0,78.34-.19,117.5.08,21.03.15,38.04,13.56,43.18,33.77.78,3.06,1.2,6.18,1.2,9.35,0,38.62.08,77.24-.04,115.85-.04,13.22-5.72,24.01-15.57,32.67-7.2,6.33-15.61,9.95-25.13,10.95-1.26.13-2.55.09-3.82.09-19.61,0-39.22,0-58.84,0Z"/>
        <path d="M56.27,19.54c4.7,5.58,9.23,10.94,13.76,16.32,4.31,5.13,8.63,10.26,12.91,15.41.62.75,1.25,1.07,2.24,1.06,12.69-.04,25.37-.04,38.06,0,1.18,0,1.9-.38,2.64-1.26,8.51-10.28,17.06-20.53,25.6-30.79.14-.17.19-.41.28-.61.13.06.26.12.4.18,1.18,4.45,2.37,8.91,3.53,13.37,6.97,26.63,13.89,53.27,20.94,79.88.72,2.72.16,4.43-2,6.16-8.51,6.83-16.89,13.81-25.35,20.7-1.13.92-1.79,1.93-2.11,3.39-1.82,8.49-3.75,16.95-5.61,25.43-.37,1.67-1.21,2.89-2.67,3.8-5.26,3.28-10.49,6.61-15.71,9.94-1.45.93-3,1.37-4.71,1.37-9.58,0-19.17,0-28.75,0-1.42,0-2.76-.31-3.96-1.06-5.68-3.54-11.35-7.1-17.02-10.66-1.26-.79-1.81-2.03-2.13-3.42-1.91-8.47-3.88-16.92-5.73-25.4-.33-1.52-1.06-2.56-2.21-3.52-8.5-7.02-16.94-14.09-25.45-21.11-1.57-1.29-2.23-2.63-1.68-4.75,8.12-30.95,16.18-61.93,24.26-92.89.11-.43.26-.84.47-1.55Z"/>
        <path class="cls-2" d="M152.75,76.74c2.97,11.06,5.81,21.85,8.81,32.6.53,1.89.14,2.87-1.36,4.09-7.5,6.05-14.87,12.26-22.31,18.38-1.12.93-1.74,1.99-2.06,3.44-2.25,10.32-4.59,20.61-6.89,30.92-.26,1.18-.75,2.09-1.79,2.83-2.35,1.66-4.63,3.42-6.88,5.22-1.11.89-2,.81-3.08-.07-2.92-2.38-5.88-4.7-8.86-7-.68-.52-.96-1.09-.98-1.95-.11-4.76-.31-5.05,3.74-7.58,4.19-2.63,6.05-6.05,6.75-10.93,1.46-10.17,3.62-20.25,5.42-30.38.22-1.23.62-1.56,1.87-1.63,9.29-.54,15.09-7.36,14.32-16.89-3.13,1.34-6.15,2.85-9.31,3.92-3.26,1.09-5.24,3.18-6.93,6.11-5.92,10.25-12.08,20.36-18.14,30.52-.19.32-.38.64-.71,1.17-2.17-3.55-4.25-6.91-6.3-10.3-4.87-8.04-9.73-16.09-14.58-24.15-.47-.78-.98-1.45-1.85-1.82-4.07-1.74-8.12-3.5-12.18-5.25-.14-.06-.31-.03-.47-.04-.72,8.03,3.75,16.2,14.1,16.69,1.27.06,1.63.49,1.84,1.66,2.13,11.7,4.33,23.38,6.46,35.08.25,1.4.8,2.44,1.96,3.28,2.15,1.56,4.21,3.25,6.34,4.82.74.54.94,1.17,1.09,2.06.59,3.56-.53,6.09-3.75,7.94-2.14,1.23-3.99,2.97-5.93,4.53-1.08.87-1.99.87-3.1-.01-2.34-1.86-4.75-3.63-7.17-5.39-.82-.6-1.23-1.32-1.45-2.3-2.29-10.31-4.63-20.6-6.89-30.92-.34-1.56-1.08-2.69-2.29-3.69-7.64-6.32-15.23-12.69-22.86-19.02-.84-.7-1.19-1.26-.86-2.47,2.94-10.77,5.78-21.57,8.65-32.36.08-.32.09-.67.51-.95,2.99,3.28,6.03,6.55,8.98,9.89.95,1.08,2.03,1.8,3.35,2.33,5.54,2.22,11.05,4.52,16.59,6.75,1.23.49,2.11,1.23,2.82,2.39,4.86,7.99,9.78,15.93,14.69,23.89,1.64,2.67,2.69,2.66,4.35-.06,4.93-8.07,9.87-16.14,14.76-24.24.52-.86,1.14-1.39,2.06-1.77,5.95-2.4,11.86-4.87,17.81-7.27,1.11-.45,2.01-1.08,2.8-1.99,2.87-3.29,5.79-6.54,8.92-10.07Z"/>
      </g>
      <g>
        <path d="M270.58,51.94V18.11l4.17,6.95-19.93-3.24c-1.39-.15-2.09-1-2.09-2.55v-2.78c0-1.39.77-2.16,2.32-2.32l30.82-4.63c2.16-.31,3.71-.19,4.63.35.93.54,1.39,1.82,1.39,3.82v38.23h-21.32ZM270.58,51.71h21.32v110.76l-11.12,21.32c-.31.62-.73,1.08-1.27,1.39-.54.31-1.2.46-1.97.46h-4.87c-1.39,0-2.09-.78-2.09-2.32V51.71ZM287.96,157.14c4.17,4.79,9,8.38,14.48,10.77,5.48,2.4,11.62,3.59,18.42,3.59,11.74,0,20.85-4.01,27.34-12.05,6.49-8.03,9.73-19.31,9.73-33.83,0-12.82-2.74-22.86-8.23-30.12-5.49-7.26-13.02-10.89-22.59-10.89-6.95,0-13.64,1.66-20.04,4.98-6.41,3.32-12.09,8.15-17.03,14.48l-2.32-5.33c5.41-9.58,12.24-17.15,20.51-22.71,8.26-5.56,16.72-8.34,25.37-8.34,9.58,0,17.8,2.32,24.68,6.95,6.87,4.63,12.17,11.2,15.87,19.7,3.71,8.5,5.56,18.62,5.56,30.36s-2.2,22.9-6.6,32.09c-4.4,9.19-10.58,16.3-18.54,21.32-7.96,5.02-17.34,7.53-28.15,7.53-9.73,0-18.39-2.09-25.95-6.26-7.57-4.17-13.67-10.27-18.31-18.31l5.79-3.94Z"/>
        <path d="M431.4,185.41c-11.43,0-21.47-2.43-30.12-7.3-8.65-4.87-15.33-11.7-20.04-20.51-4.71-8.81-7.07-19.08-7.07-30.82s2.35-22.28,7.07-31.17c4.71-8.88,11.39-15.76,20.04-20.62,8.65-4.87,18.69-7.3,30.12-7.3s21.9,2.43,30.47,7.3c8.57,4.87,15.25,11.74,20.04,20.62,4.79,8.88,7.18,19.27,7.18,31.17s-2.4,22.01-7.18,30.82c-4.79,8.81-11.47,15.64-20.04,20.51-8.57,4.87-18.73,7.3-30.47,7.3ZM431.86,171.74c11.12,0,19.73-3.94,25.84-11.82,6.1-7.88,9.15-18.85,9.15-32.9,0-9.11-1.55-17.07-4.63-23.87-3.09-6.8-7.3-12.13-12.63-15.99-5.33-3.86-11.55-5.79-18.65-5.79-10.97,0-19.46,3.9-25.49,11.7-6.02,7.8-9.04,18.73-9.04,32.79s3.28,24.83,9.85,33.25c6.56,8.42,15.1,12.63,25.6,12.63Z"/>
        <path d="M540.77,185.41c-11.43,0-21.47-2.43-30.12-7.3-8.65-4.87-15.33-11.7-20.04-20.51-4.71-8.81-7.07-19.08-7.07-30.82s2.35-22.28,7.07-31.17c4.71-8.88,11.39-15.76,20.04-20.62,8.65-4.87,18.69-7.3,30.12-7.3s21.9,2.43,30.47,7.3,15.25,11.74,20.04,20.62c4.79,8.88,7.18,19.27,7.18,31.17s-2.4,22.01-7.18,30.82c-4.79,8.81-11.47,15.64-20.04,20.51s-18.73,7.3-30.47,7.3ZM541.23,171.74c11.12,0,19.73-3.94,25.84-11.82,6.1-7.88,9.15-18.85,9.15-32.9,0-9.11-1.54-17.07-4.63-23.87-3.09-6.8-7.3-12.13-12.63-15.99-5.33-3.86-11.55-5.79-18.65-5.79-10.97,0-19.46,3.9-25.49,11.7-6.02,7.8-9.04,18.73-9.04,32.79s3.28,24.83,9.85,33.25c6.56,8.42,15.1,12.63,25.6,12.63Z"/>
        <path d="M650.14,185.41c-11.43,0-21.47-2.43-30.12-7.3-8.65-4.87-15.33-11.7-20.04-20.51-4.71-8.81-7.07-19.08-7.07-30.82s2.35-22.28,7.07-31.17c4.71-8.88,11.39-15.76,20.04-20.62,8.65-4.87,18.69-7.3,30.12-7.3s21.9,2.43,30.47,7.3,15.25,11.74,20.04,20.62c4.79,8.88,7.18,19.27,7.18,31.17s-2.4,22.01-7.18,30.82c-4.79,8.81-11.47,15.64-20.04,20.51s-18.73,7.3-30.47,7.3ZM650.6,171.74c11.12,0,19.73-3.94,25.84-11.82,6.1-7.88,9.15-18.85,9.15-32.9,0-9.11-1.55-17.07-4.63-23.87-3.09-6.8-7.3-12.13-12.63-15.99-5.33-3.86-11.55-5.79-18.65-5.79-10.97,0-19.46,3.9-25.49,11.7-6.03,7.8-9.04,18.73-9.04,32.79s3.28,24.83,9.85,33.25c6.56,8.42,15.1,12.63,25.61,12.63Z"/>
        <path d="M716.64,110.34v-33.83l4.17,6.95-19.93-3.24c-1.39-.15-2.08-1-2.08-2.55v-2.78c0-1.23.77-2.09,2.32-2.55l29.43-4.4c2.16-.31,3.71-.19,4.63.35.93.54,1.39,1.82,1.39,3.82v22.94l1.39,3.94v11.35h-21.32ZM702.74,231.06c-1.39,0-2.09-.77-2.09-2.32v-2.32c0-1.55.77-2.4,2.32-2.55l9.04-2.08c2.16-.46,3.48-1.01,3.94-1.62.46-.62.7-2.01.7-4.17v-26.65h21.32v26.88c0,2.01.27,3.32.81,3.94.54.62,1.89,1.08,4.06,1.39l14.37,2.55c1.39.15,2.09,1,2.09,2.55v2.32c0,1.39-.78,2.08-2.32,2.08h-54.22ZM716.64,231.06v-120.73h21.32v120.73h-21.32ZM734.48,157.14c4.17,4.79,9,8.38,14.48,10.77,5.48,2.4,11.62,3.59,18.42,3.59,11.74,0,20.85-4.01,27.34-12.05,6.49-8.03,9.73-19.31,9.73-33.83,0-12.82-2.74-22.86-8.23-30.12-5.49-7.26-13.02-10.89-22.59-10.89-6.95,0-13.63,1.66-20.04,4.98-6.41,3.32-12.09,8.15-17.03,14.48l-2.32-5.33c5.41-9.58,12.24-17.15,20.51-22.71,8.26-5.56,16.72-8.34,25.37-8.34,9.58,0,17.8,2.32,24.68,6.95,6.87,4.63,12.17,11.2,15.87,19.7,3.71,8.5,5.56,18.62,5.56,30.36s-2.2,22.9-6.6,32.09c-4.4,9.19-10.58,16.3-18.54,21.32-7.96,5.02-17.34,7.53-28.15,7.53-9.73,0-18.39-2.09-25.95-6.26-7.57-4.17-13.67-10.27-18.31-18.31l5.79-3.94Z"/>
        <path d="M831.57,51.94V18.11l4.17,6.95-19.93-3.24c-1.39-.15-2.08-1-2.08-2.55v-2.78c0-1.39.77-2.16,2.32-2.32l30.82-4.63c2.16-.31,3.71-.19,4.63.35.93.54,1.39,1.82,1.39,3.82v38.23h-21.32ZM817.67,183.56c-1.39,0-2.08-.77-2.08-2.32v-2.32c0-1.54.77-2.39,2.32-2.55l9.04-2.08c2.16-.46,3.48-1,3.94-1.62.46-.62.69-2.01.69-4.17v-26.65h21.32v26.88c0,2.01.27,3.32.81,3.94.54.62,1.89,1.08,4.05,1.39l14.37,2.55c1.39.16,2.09,1.01,2.09,2.55v2.32c0,1.39-.78,2.09-2.32,2.09h-54.22ZM831.57,183.56V51.71h21.32v131.85h-21.32Z"/>
        <path d="M854.97,82.53c-.78-1.7-1.78-2.93-3.01-3.71-1.24-.77-2.86-1.23-4.87-1.39l-6.95-.7c-1.39-.15-2.09-1-2.09-2.55v-2.55c0-1.39.77-2.09,2.32-2.09h58.16c1.39,0,2.09.77,2.09,2.32v2.55c0,1.39-.78,2.17-2.32,2.32l-9.27.46c-4.79.16-7.57,1.04-8.34,2.66-.77,1.62-.16,4.52,1.85,8.69l36.38,77.4-12.28,19-51.67-102.42ZM873.74,232.92c-4.95,0-8.61-1.08-11.01-3.24-2.4-2.17-3.59-4.79-3.59-7.88,0-1.85.27-3.52.81-4.98.54-1.47,1.12-2.9,1.74-4.29.93-1.24,2.01-1.55,3.24-.93,2.01.77,4.05,1.47,6.14,2.09,2.09.62,4.21.93,6.37.93,2.62,0,4.87-.39,6.72-1.16,1.85-.78,3.74-2.47,5.68-5.1,1.93-2.63,4.05-6.64,6.37-12.05l47.04-107.75c1.85-4.48,2.28-7.45,1.27-8.92-1.01-1.47-3.82-2.28-8.46-2.43l-8.57-.46c-1.39-.15-2.09-1-2.09-2.55v-2.55c0-1.39.77-2.09,2.32-2.09h48.2c1.39,0,2.08.77,2.08,2.32v2.55c0,1.39-.77,2.17-2.32,2.32l-7.42.7c-1.85.16-3.36.66-4.52,1.51-1.16.85-2.13,2.2-2.9,4.06l-53.3,117.95c-3.56,7.88-6.99,14.14-10.31,18.77-3.32,4.63-6.88,8-10.66,10.08-3.79,2.09-8.07,3.13-12.86,3.13Z"/>
      </g>
    </g>
  </g>
</svg>