<svg width="143" height="34" viewBox="0 0 143 34" fill="none" xmlns="http://www.w3.org/2000/svg">
<path d="M15.2759 29.6052C12.4209 29.6052 9.56749 29.6052 6.71257 29.6052C4.7801 29.6052 3.1264 28.9134 1.79235 27.5239C0.745841 26.435 0.154715 25.1229 0.0335701 23.6034C0.00145957 23.1991 0.00145957 22.7963 0.00145957 22.3935C0 17.104 0 11.8159 0 6.52646C0 5.25956 0.309429 4.08022 1.01586 3.02057C2.19082 1.26033 3.83429 0.267822 5.94045 0.0445078C6.20756 0.0167759 6.47174 0.00947806 6.73884 0.00947806C12.456 0.00947806 18.1731 -0.0182538 23.8888 0.0211546C26.9583 0.0430482 29.441 2.00033 30.1912 4.95013C30.3051 5.39675 30.3664 5.85214 30.3664 6.31482C30.3664 11.9517 30.378 17.5885 30.3605 23.224C30.3547 25.1535 29.5257 26.7284 28.088 27.9924C27.0371 28.9163 25.8096 29.4446 24.4201 29.5906C24.2362 29.6096 24.0479 29.6037 23.8625 29.6037C21.0003 29.6037 18.1381 29.6037 15.2744 29.6037L15.2759 29.6052Z" fill="#D2A37B"/>
<path d="M8.21359 2.85107C8.89959 3.66551 9.56078 4.44784 10.222 5.23309C10.851 5.98185 11.4816 6.73061 12.1063 7.48229C12.1968 7.59176 12.2887 7.63846 12.4332 7.637C14.2854 7.63116 16.1361 7.63116 17.9883 7.637C18.1606 7.637 18.2657 7.58154 18.3737 7.4531C19.6158 5.95266 20.8637 4.4566 22.1102 2.95908C22.1306 2.93426 22.1379 2.89923 22.151 2.87004C22.17 2.8788 22.189 2.88756 22.2094 2.89632C22.3817 3.54582 22.5553 4.19679 22.7246 4.84776C23.742 8.7346 24.752 12.6229 25.781 16.5068C25.8861 16.9038 25.8043 17.1534 25.4891 17.4059C24.247 18.4028 23.0239 19.4216 21.7891 20.4272C21.6241 20.5615 21.5278 20.7089 21.4811 20.922C21.2155 22.1612 20.9338 23.396 20.6623 24.6337C20.6083 24.8775 20.4857 25.0555 20.2726 25.1883C19.5048 25.6671 18.7415 26.1531 17.9796 26.6392C17.7679 26.7749 17.5417 26.8391 17.2921 26.8391C15.8939 26.8391 14.4941 26.8391 13.0959 26.8391C12.8886 26.8391 12.693 26.7939 12.5179 26.6844C11.6888 26.1677 10.8613 25.6481 10.0337 25.1285C9.84977 25.0132 9.7695 24.8322 9.72279 24.6293C9.44401 23.3931 9.15648 22.1597 8.88646 20.922C8.83829 20.7002 8.73174 20.5484 8.56389 20.4082C7.32326 19.3836 6.09138 18.3517 4.84928 17.3271C4.62013 17.1388 4.5238 16.9432 4.60408 16.6338C5.78925 12.1164 6.96566 7.59467 8.14499 3.07584C8.16105 3.01308 8.18294 2.95324 8.21359 2.84961V2.85107Z" fill="black"/>
<path d="M22.2959 11.2002C22.7294 12.8145 23.1439 14.3894 23.5818 15.9584C23.6591 16.2343 23.6022 16.3773 23.3833 16.5554C22.2886 17.4384 21.2129 18.3448 20.127 19.2381C19.9635 19.3738 19.873 19.5285 19.8263 19.7401C19.4979 21.2464 19.1564 22.7483 18.8207 24.2531C18.7827 24.4254 18.7112 24.5582 18.5594 24.6662C18.2164 24.9085 17.8836 25.1654 17.5552 25.4281C17.3932 25.558 17.2633 25.5463 17.1057 25.4179C16.6795 25.0705 16.2474 24.7319 15.8125 24.3962C15.7132 24.3203 15.6724 24.2371 15.6694 24.1116C15.6534 23.4168 15.6242 23.3745 16.2153 23.0052C16.8269 22.6213 17.0984 22.1222 17.2005 21.4099C17.4136 19.9255 17.7289 18.4543 17.9916 16.9757C18.0237 16.7962 18.0821 16.748 18.2646 16.7378C19.6205 16.659 20.4671 15.6636 20.3547 14.2726C19.8978 14.4682 19.457 14.6886 18.9958 14.8447C18.52 15.0038 18.231 15.3089 17.9843 15.7365C17.1203 17.2326 16.2212 18.7082 15.3367 20.1912C15.3089 20.2379 15.2812 20.2846 15.233 20.3619C14.9163 19.8438 14.6127 19.3534 14.3135 18.8586C13.6027 17.6851 12.8933 16.5101 12.1854 15.3337C12.1168 15.2199 12.0424 15.1221 11.9154 15.0681C11.3214 14.8141 10.7303 14.5572 10.1377 14.3018C10.1172 14.293 10.0924 14.2974 10.0691 14.2959C9.96398 15.468 10.6164 16.6605 12.1271 16.732C12.3124 16.7407 12.365 16.8035 12.3956 16.9743C12.7065 18.682 13.0276 20.3867 13.3385 22.0944C13.375 22.2988 13.4553 22.4506 13.6246 22.5732C13.9384 22.8009 14.2391 23.0475 14.55 23.2767C14.658 23.3555 14.6872 23.4475 14.709 23.5774C14.7952 24.097 14.6317 24.4662 14.1617 24.7363C13.8494 24.9158 13.5793 25.1697 13.2962 25.3974C13.1385 25.5244 13.0057 25.5244 12.8437 25.396C12.5022 25.1245 12.1504 24.8662 11.7972 24.6093C11.6775 24.5217 11.6177 24.4166 11.5856 24.2736C11.2513 22.7688 10.9098 21.2669 10.5799 19.7606C10.5303 19.5329 10.4223 19.368 10.2457 19.222C9.13056 18.2995 8.02275 17.3698 6.9091 16.4459C6.78649 16.3437 6.73541 16.262 6.78357 16.0854C7.21269 14.5134 7.62721 12.9371 8.0461 11.3622C8.05778 11.3155 8.05924 11.2644 8.12054 11.2235C8.55695 11.7023 9.00066 12.1796 9.43124 12.6671C9.56989 12.8247 9.72753 12.9298 9.92019 13.0071C10.7288 13.3312 11.533 13.6669 12.3416 13.9924C12.5211 14.0639 12.6496 14.1719 12.7532 14.3412C13.4626 15.5074 14.1807 16.6663 14.8973 17.8281C15.1367 18.2178 15.29 18.2164 15.5322 17.8193C16.2518 16.6415 16.9728 15.4636 17.6866 14.2813C17.7625 14.1558 17.853 14.0785 17.9872 14.023C18.8557 13.6727 19.7183 13.3122 20.5867 12.9619C20.7487 12.8962 20.8801 12.8043 20.9954 12.6714C21.4143 12.1912 21.8405 11.7169 22.2974 11.2017L22.2959 11.2002Z" fill="#D2A27B"/>
<path d="M39.494 7.5803V2.64257L40.1026 3.65698L37.1937 3.18407C36.9908 3.16218 36.8887 3.03812 36.8887 2.81188V2.40612C36.8887 2.20324 37.0011 2.09086 37.2273 2.0675L41.7257 1.39172C42.041 1.34647 42.2672 1.36399 42.4015 1.44281C42.5372 1.52162 42.6044 1.70845 42.6044 2.00036V7.5803H39.4925H39.494ZM39.494 7.54673H42.6058V23.7129L40.9828 26.8247C40.9375 26.9152 40.8762 26.9824 40.7974 27.0276C40.7186 27.0729 40.6223 27.0948 40.5099 27.0948H39.7991C39.5962 27.0948 39.494 26.9809 39.494 26.7561V7.54673ZM42.0307 22.935C42.6394 23.6341 43.3444 24.1581 44.1442 24.5069C44.944 24.8572 45.8402 25.0309 46.8327 25.0309C48.5463 25.0309 49.8759 24.4456 50.8232 23.2721C51.7705 22.1001 52.2434 20.4537 52.2434 18.3344C52.2434 16.4633 51.8434 14.9978 51.0421 13.9382C50.2408 12.8785 49.1418 12.3487 47.745 12.3487C46.7306 12.3487 45.7541 12.591 44.82 13.0756C43.8844 13.5602 43.0554 14.2651 42.3343 15.189L41.9957 14.4111C42.7853 13.0128 43.7822 11.9079 44.9893 11.0964C46.1949 10.2849 47.4297 9.87913 48.6922 9.87913C50.0905 9.87913 51.2903 10.2177 52.2944 10.8935C53.2972 11.5693 54.0707 12.5282 54.6108 13.7689C55.1523 15.0095 55.4223 16.4866 55.4223 18.2001C55.4223 19.9137 55.1012 21.5426 54.459 22.8839C53.8168 24.2252 52.9148 25.263 51.7529 25.9957C50.5911 26.7284 49.222 27.0948 47.6443 27.0948C46.2241 27.0948 44.9601 26.7897 43.8567 26.1811C42.7518 25.5724 41.8614 24.6821 41.1842 23.5086L42.0293 22.9335L42.0307 22.935Z" fill="#D2A37B"/>
<path d="M62.9664 27.061C61.2981 27.061 59.8327 26.7063 58.5702 25.9955C57.3076 25.2847 56.3327 24.2878 55.6452 23.0019C54.9577 21.716 54.6133 20.217 54.6133 18.5035C54.6133 16.79 54.9563 15.2516 55.6452 13.954C56.3327 12.6579 57.3076 11.6537 58.5702 10.9444C59.8327 10.2336 61.2981 9.87891 62.9664 9.87891C64.6347 9.87891 66.1629 10.2336 67.4137 10.9444C68.6646 11.6552 69.6396 12.6579 70.3387 13.954C71.0378 15.2501 71.3867 16.7666 71.3867 18.5035C71.3867 20.2404 71.0364 21.716 70.3387 23.0019C69.6396 24.2878 68.6646 25.2847 67.4137 25.9955C66.1629 26.7063 64.6799 27.061 62.9664 27.061ZM63.0335 25.0657C64.6566 25.0657 65.9133 24.4907 66.8051 23.3405C67.6954 22.1904 68.1406 20.5892 68.1406 18.5385C68.1406 17.2089 67.9143 16.0471 67.4648 15.0545C67.0138 14.062 66.3993 13.2841 65.6214 12.7207C64.8434 12.1573 63.9356 11.8756 62.8993 11.8756C61.2981 11.8756 60.0589 12.4448 59.1788 13.5833C58.3002 14.7218 57.8594 16.3171 57.8594 18.3692C57.8594 20.4214 58.3381 21.9933 59.297 23.2223C60.2545 24.4513 61.501 25.0657 63.0335 25.0657Z" fill="#D2A37B"/>
<path d="M78.9293 27.061C77.261 27.061 75.7956 26.7063 74.5331 25.9955C73.2705 25.2847 72.2955 24.2878 71.6081 23.0019C70.9206 21.716 70.5762 20.217 70.5762 18.5035C70.5762 16.79 70.9192 15.2516 71.6081 13.954C72.2955 12.6579 73.2705 11.6537 74.5331 10.9444C75.7956 10.2336 77.261 9.87891 78.9293 9.87891C80.5976 9.87891 82.1258 10.2336 83.3766 10.9444C84.6275 11.6552 85.6025 12.6579 86.3016 13.954C87.0007 15.2501 87.3496 16.7666 87.3496 18.5035C87.3496 20.2404 86.9993 21.716 86.3016 23.0019C85.6025 24.2878 84.6275 25.2847 83.3766 25.9955C82.1258 26.7063 80.6428 27.061 78.9293 27.061ZM78.9964 25.0657C80.6195 25.0657 81.8762 24.4907 82.768 23.3405C83.6583 22.1904 84.1035 20.5892 84.1035 18.5385C84.1035 17.2089 83.8787 16.0471 83.4277 15.0545C82.9767 14.062 82.3622 13.2841 81.5843 12.7207C80.8063 12.1573 79.8985 11.8756 78.8622 11.8756C77.261 11.8756 76.0218 12.4448 75.1417 13.5833C74.263 14.7218 73.8223 16.3171 73.8223 18.3692C73.8223 20.4214 74.301 21.9933 75.2599 23.2223C76.2174 24.4513 77.4639 25.0657 78.9964 25.0657Z" fill="#D2A37B"/>
<path d="M94.8922 27.061C93.2239 27.061 91.7585 26.7063 90.496 25.9955C89.2334 25.2847 88.2584 24.2878 87.571 23.0019C86.8835 21.716 86.5391 20.217 86.5391 18.5035C86.5391 16.79 86.8821 15.2516 87.571 13.954C88.2584 12.6579 89.2334 11.6537 90.496 10.9444C91.7585 10.2336 93.2239 9.87891 94.8922 9.87891C96.5605 9.87891 98.0886 10.2336 99.3395 10.9444C100.59 11.6552 101.565 12.6579 102.264 13.954C102.964 15.2501 103.312 16.7666 103.312 18.5035C103.312 20.2404 102.962 21.716 102.264 23.0019C101.565 24.2878 100.59 25.2847 99.3395 25.9955C98.0886 26.7063 96.6057 27.061 94.8922 27.061ZM94.9593 25.0657C96.5824 25.0657 97.8391 24.4907 98.7309 23.3405C99.6212 22.1904 100.066 20.5892 100.066 18.5385C100.066 17.2089 99.8401 16.0471 99.3906 15.0545C98.9396 14.062 98.3251 13.2841 97.5472 12.7207C96.7692 12.1573 95.8613 11.8756 94.825 11.8756C93.2239 11.8756 91.9847 12.4448 91.1046 13.5833C90.2245 14.7218 89.7852 16.3171 89.7852 18.3692C89.7852 20.4214 90.2639 21.9933 91.2228 23.2223C92.1803 24.4513 93.4268 25.0657 94.9608 25.0657H94.9593Z" fill="#D2A37B"/>
<path d="M104.598 16.104V11.1662L105.207 12.1806L102.298 11.7077C102.095 11.6859 101.994 11.5618 101.994 11.3356V10.9298C101.994 10.7503 102.107 10.6247 102.333 10.5576L106.628 9.9154C106.944 9.87015 107.17 9.88766 107.304 9.96648C107.44 10.0453 107.507 10.2321 107.507 10.524V13.8723L107.71 14.4474V16.104H104.598ZM102.569 33.7239C102.366 33.7239 102.264 33.6115 102.264 33.3853V33.0467C102.264 32.8204 102.377 32.6964 102.603 32.6745L103.922 32.3709C104.238 32.3038 104.43 32.2235 104.497 32.1344C104.564 32.044 104.599 31.8411 104.599 31.5258V27.636H107.711V31.5594C107.711 31.8527 107.751 32.044 107.83 32.1344C107.908 32.2249 108.105 32.2921 108.422 32.3373L110.519 32.7095C110.722 32.7314 110.825 32.8555 110.825 33.0817V33.4203C110.825 33.6232 110.711 33.7239 110.486 33.7239H102.572H102.569ZM104.598 33.7239V16.1025H107.71V33.7239H104.598ZM107.202 22.9348C107.811 23.6339 108.516 24.1579 109.315 24.5067C110.115 24.857 111.011 25.0307 112.004 25.0307C113.717 25.0307 115.047 24.4454 115.994 23.2719C116.942 22.0999 117.415 20.4535 117.415 18.3342C117.415 16.463 117.015 14.9976 116.213 13.938C115.412 12.8783 114.313 12.3485 112.916 12.3485C111.902 12.3485 110.927 12.5908 109.991 13.0754C109.056 13.5599 108.227 14.2649 107.505 15.1888L107.167 14.4109C107.956 13.0126 108.953 11.9077 110.16 11.0962C111.366 10.2847 112.601 9.87891 113.863 9.87891C115.262 9.87891 116.461 10.2175 117.466 10.8933C118.468 11.5691 119.242 12.528 119.782 13.7687C120.323 15.0093 120.593 16.4864 120.593 18.1999C120.593 19.9135 120.272 21.5423 119.63 22.8837C118.988 24.225 118.086 25.2628 116.924 25.9955C115.762 26.7282 114.393 27.0945 112.815 27.0945C111.395 27.0945 110.131 26.7895 109.028 26.1809C107.923 25.5722 107.033 24.6819 106.355 23.5084L107.2 22.9333L107.202 22.9348Z" fill="#D2A37B"/>
<path d="M121.373 7.5803V2.64257L121.982 3.65698L119.073 3.18407C118.87 3.16218 118.77 3.03812 118.77 2.81188V2.40612C118.77 2.20324 118.882 2.09086 119.108 2.0675L123.607 1.39172C123.922 1.34647 124.148 1.36399 124.282 1.44281C124.418 1.52162 124.485 1.70845 124.485 2.00036V7.5803H121.373ZM119.345 26.7912C119.142 26.7912 119.041 26.6788 119.041 26.4526V26.1139C119.041 25.8892 119.153 25.7651 119.38 25.7417L120.699 25.4382C121.014 25.371 121.207 25.2922 121.274 25.2017C121.341 25.1112 121.375 24.9083 121.375 24.5931V20.7033H124.487V24.6266C124.487 24.92 124.526 25.1112 124.605 25.2017C124.684 25.2922 124.881 25.3593 125.196 25.4046L127.293 25.7768C127.496 25.8001 127.598 25.9242 127.598 26.149V26.4876C127.598 26.6905 127.485 26.7926 127.26 26.7926H119.346L119.345 26.7912ZM121.373 26.7912V7.54673H124.485V26.7912H121.373Z" fill="#D2A37B"/>
<path d="M124.79 12.0454C124.676 11.7973 124.53 11.6177 124.351 11.5039C124.17 11.3915 123.933 11.3244 123.64 11.301L122.625 11.1988C122.422 11.177 122.32 11.0529 122.32 10.8267V10.4545C122.32 10.2516 122.433 10.1494 122.659 10.1494H131.148C131.351 10.1494 131.453 10.2618 131.453 10.488V10.8602C131.453 11.0631 131.339 11.177 131.114 11.1988L129.761 11.266C129.062 11.2893 128.656 11.4178 128.544 11.6542C128.432 11.8907 128.521 12.314 128.814 12.9226L134.124 24.2197L132.332 26.9929L124.79 12.0439V12.0454ZM127.53 33.9959C126.807 33.9959 126.273 33.8383 125.923 33.523C125.572 33.2063 125.399 32.8239 125.399 32.3728C125.399 32.1028 125.438 31.8591 125.517 31.646C125.596 31.4314 125.68 31.2227 125.771 31.0198C125.906 30.8388 126.064 30.7936 126.244 30.8841C126.537 30.9965 126.835 31.0986 127.14 31.1891C127.445 31.2796 127.754 31.3249 128.07 31.3249C128.452 31.3249 128.78 31.268 129.05 31.1556C129.32 31.0417 129.596 30.795 129.879 30.4112C130.161 30.0273 130.471 29.442 130.809 28.6524L137.675 12.9255C137.945 12.2716 138.008 11.8381 137.86 11.6236C137.713 11.409 137.303 11.2908 136.626 11.2689L135.375 11.2018C135.172 11.1799 135.07 11.0558 135.07 10.8296V10.4574C135.07 10.2545 135.182 10.1523 135.408 10.1523H142.443C142.646 10.1523 142.747 10.2647 142.747 10.491V10.8631C142.747 11.066 142.635 11.1799 142.408 11.2018L141.325 11.3039C141.055 11.3273 140.835 11.4003 140.666 11.5243C140.496 11.6484 140.355 11.8454 140.242 12.1169L132.463 29.3326C131.943 30.4827 131.443 31.3964 130.958 32.0722C130.473 32.748 129.954 33.2398 129.402 33.5434C128.849 33.8485 128.224 34.0003 127.525 34.0003L127.53 33.9959Z" fill="#D2A37B"/>
</svg>
