<?xml version="1.0" encoding="UTF-8"?>
<svg id="Layer_2" xmlns="http://www.w3.org/2000/svg" viewBox="0 0 208.09 202.84">
  <defs>
    <style>
      .cls-1 {
        fill: #d2a37b;
      }

      .cls-2 {
        fill: #d2a27b;
      }
    </style>
  </defs>
  <g id="Layer_1-2" data-name="Layer_1">
    <g>
      <path class="cls-1" d="M104.66,202.84c-19.56,0-39.11,0-58.67,0-13.24,0-24.57-4.74-33.71-14.26-7.17-7.46-11.22-16.45-12.05-26.86-.22-2.77-.22-5.53-.22-8.29C0,117.19,0,80.96,0,44.72c0-8.68,2.12-16.76,6.96-24.02C15.01,8.64,26.27,1.84,40.7.31c1.83-.19,3.64-.24,5.47-.24,39.17,0,78.34-.19,117.5.08,21.03.15,38.04,13.56,43.18,33.77.78,3.06,1.2,6.18,1.2,9.35,0,38.62.08,77.24-.04,115.85-.04,13.22-5.72,24.01-15.57,32.67-7.2,6.33-15.61,9.95-25.13,10.95-1.26.13-2.55.09-3.82.09-19.61,0-39.22,0-58.84,0Z"/>
      <path d="M56.27,19.54c4.7,5.58,9.23,10.94,13.76,16.32,4.31,5.13,8.63,10.26,12.91,15.41.62.75,1.25,1.07,2.24,1.06,12.69-.04,25.37-.04,38.06,0,1.18,0,1.9-.38,2.64-1.26,8.51-10.28,17.06-20.53,25.6-30.79.14-.17.19-.41.28-.61.13.06.26.12.4.18,1.18,4.45,2.37,8.91,3.53,13.37,6.97,26.63,13.89,53.27,20.94,79.88.72,2.72.16,4.43-2,6.16-8.51,6.83-16.89,13.81-25.35,20.7-1.13.92-1.79,1.93-2.11,3.39-1.82,8.49-3.75,16.95-5.61,25.43-.37,1.67-1.21,2.89-2.67,3.8-5.26,3.28-10.49,6.61-15.71,9.94-1.45.93-3,1.37-4.71,1.37-9.58,0-19.17,0-28.75,0-1.42,0-2.76-.31-3.96-1.06-5.68-3.54-11.35-7.1-17.02-10.66-1.26-.79-1.81-2.03-2.13-3.42-1.91-8.47-3.88-16.92-5.73-25.4-.33-1.52-1.06-2.56-2.21-3.52-8.5-7.02-16.94-14.09-25.45-21.11-1.57-1.29-2.23-2.63-1.68-4.75,8.12-30.95,16.18-61.93,24.26-92.89.11-.43.26-.84.47-1.55Z"/>
      <path class="cls-2" d="M152.75,76.74c2.97,11.06,5.81,21.85,8.81,32.6.53,1.89.14,2.87-1.36,4.09-7.5,6.05-14.87,12.26-22.31,18.38-1.12.93-1.74,1.99-2.06,3.44-2.25,10.32-4.59,20.61-6.89,30.92-.26,1.18-.75,2.09-1.79,2.83-2.35,1.66-4.63,3.42-6.88,5.22-1.11.89-2,.81-3.08-.07-2.92-2.38-5.88-4.7-8.86-7-.68-.52-.96-1.09-.98-1.95-.11-4.76-.31-5.05,3.74-7.58,4.19-2.63,6.05-6.05,6.75-10.93,1.46-10.17,3.62-20.25,5.42-30.38.22-1.23.62-1.56,1.87-1.63,9.29-.54,15.09-7.36,14.32-16.89-3.13,1.34-6.15,2.85-9.31,3.92-3.26,1.09-5.24,3.18-6.93,6.11-5.92,10.25-12.08,20.36-18.14,30.52-.19.32-.38.64-.71,1.17-2.17-3.55-4.25-6.91-6.3-10.3-4.87-8.04-9.73-16.09-14.58-24.15-.47-.78-.98-1.45-1.85-1.82-4.07-1.74-8.12-3.5-12.18-5.25-.14-.06-.31-.03-.47-.04-.72,8.03,3.75,16.2,14.1,16.69,1.27.06,1.63.49,1.84,1.66,2.13,11.7,4.33,23.38,6.46,35.08.25,1.4.8,2.44,1.96,3.28,2.15,1.56,4.21,3.25,6.34,4.82.74.54.94,1.17,1.09,2.06.59,3.56-.53,6.09-3.75,7.94-2.14,1.23-3.99,2.97-5.93,4.53-1.08.87-1.99.87-3.1-.01-2.34-1.86-4.75-3.63-7.17-5.39-.82-.6-1.23-1.32-1.45-2.3-2.29-10.31-4.63-20.6-6.89-30.92-.34-1.56-1.08-2.69-2.29-3.69-7.64-6.32-15.23-12.69-22.86-19.02-.84-.7-1.19-1.26-.86-2.47,2.94-10.77,5.78-21.57,8.65-32.36.08-.32.09-.67.51-.95,2.99,3.28,6.03,6.55,8.98,9.89.95,1.08,2.03,1.8,3.35,2.33,5.54,2.22,11.05,4.52,16.59,6.75,1.23.49,2.11,1.23,2.82,2.39,4.86,7.99,9.78,15.93,14.69,23.89,1.64,2.67,2.69,2.66,4.35-.06,4.93-8.07,9.87-16.14,14.76-24.24.52-.86,1.14-1.39,2.06-1.77,5.95-2.4,11.86-4.87,17.81-7.27,1.11-.45,2.01-1.08,2.8-1.99,2.87-3.29,5.79-6.54,8.92-10.07Z"/>
    </g>
  </g>
</svg>